<svg xmlns="http://www.w3.org/2000/svg" viewBox="0 0 1024 1024" role="img" aria-labelledby="title">
  <title>YouTube Music Wrapper icon</title>
  <defs>
    <linearGradient id="bg" x1="128" y1="96" x2="896" y2="928" gradientUnits="userSpaceOnUse">
      <stop offset="0" stop-color="#ff4d4d" />
      <stop offset="0.55" stop-color="#e60023" />
      <stop offset="1" stop-color="#8f0015" />
    </linearGradient>
    <filter id="shadow" x="-20%" y="-20%" width="140%" height="140%" color-interpolation-filters="sRGB">
      <feDropShadow dx="0" dy="28" stdDeviation="38" flood-color="#1f0008" flood-opacity="0.28" />
    </filter>
  </defs>
  <rect width="1024" height="1024" rx="224" fill="url(#bg)" />
  <circle cx="512" cy="512" r="332" fill="none" stroke="#ffffff" stroke-opacity="0.22" stroke-width="54" />
  <g filter="url(#shadow)">
    <circle cx="512" cy="512" r="242" fill="#ffffff" />
    <path d="M454 363v298l246-149z" fill="#e60023" />
  </g>
  <path
    d="M356 692c0-44 43-80 96-80 19 0 37 5 52 13V366h64v246c15-8 33-13 52-13 53 0 96 36 96 80s-43 80-96 80-96-36-96-80V462h-64v217c0 44-43 80-96 80s-96-36-96-80 43-80 96-80c19 0 37 5 52 13v-96h64v176c0 44-43 80-96 80s-96-36-96-80z"
    fill="#1f0a0f"
    opacity="0.13"
  />
</svg>
